<svg width="100" height="100" xmlns="http://www.w3.org/2000/svg" xml:space="preserve" enable-background="new 0 0 100 100" version="1.1" style="fill:#A99EA3;">

 <g>
  <path id="svg_1" d="m80.175,35.985c2.017,-3.62 1.021,-6.27 -1.229,-7.455c2.66,-3.331 0.746,-7.456 -2.783,-8.369c0.716,-5.796 -2.949,-8.37 -7.027,-6.384c-2.58,-2.127 -5.32,-2.652 -7.197,0.13c-2.043,-2.526 -5.636,-2.506 -7.68,-0.226c-1.544,-2.464 -6.067,-4.268 -10.001,-1.255c-2.174,-2.939 -7.536,-3.93 -9.772,1.068c-3.468,-1.489 -8.713,1.961 -7.781,6.722c-4.884,1.079 -6.665,3.55 -4.467,7.836c-6.212,0.541 -5.406,8.012 -2.78,9.762c-0.792,1.509 -1.025,3.25 -0.618,4.944l11.188,46.477c0.108,0.449 0.51,0.765 0.972,0.765l39,0c0.462,0 0.863,-0.316 0.973,-0.766l11.188,-46.477c0.577,-2.4 -0.102,-4.956 -1.986,-6.772zm-56.175,-5.985c0.823,0 1.294,-0.942 0.8,-1.6c-2.921,-3.897 -1.414,-5.822 3.323,-6.407c0.681,-0.085 1.075,-0.815 0.776,-1.433c-1.69,-3.396 3.271,-6.861 5.394,-4.854c0.539,0.541 1.482,0.296 1.677,-0.462c1.259,-5.192 6.276,-3.154 7.082,-0.928c0.244,0.733 1.197,0.925 1.702,0.34c2.964,-3.447 8.161,-1.361 8.246,1.343c0,1.14 1.596,1.374 1.948,0.316c1.112,-3.131 5.065,-3.042 6.104,0.001c0.302,0.91 1.595,0.91 1.896,0c1.045,-3.131 3.132,-2.802 5.346,-0.608c0.337,0.335 0.865,0.386 1.261,0.124c3.383,-2.28 5.496,0.797 4.475,4.927c-0.15,0.62 0.314,1.231 0.964,1.241c2.868,0.03 4.745,3.933 1.452,6.168c-0.801,0.535 -0.439,1.808 0.543,1.832c1.887,0.031 3.085,1.797 1.547,4.804c-0.792,-0.412 -1.659,-0.675 -2.566,-0.764c-0.158,-1.254 -0.976,-3.236 -3.309,-4.014c-0.635,-0.206 -0.941,0.74 -0.318,0.948c1.953,0.651 2.471,2.242 2.608,3.047c-2.468,0.111 -4.664,1.505 -5.851,3.573c-1.332,-2.331 -3.72,-3.594 -6.166,-3.594c-2.828,0 -5.043,1.408 -6.271,3.482c-0.96,-1.612 -2.452,-2.728 -4.171,-3.211c-0.009,-0.016 -0.011,-0.034 -0.021,-0.049c-2.343,-3.329 0.621,-6.763 4.307,-4.306c0.179,0.117 0.41,0.11 0.58,-0.02c0.168,-0.13 0.238,-0.352 0.17,-0.555c-1.398,-4.195 6.066,-4.944 7.252,-1.595c0.074,0.21 0.287,0.349 0.503,0.333c0.026,0.001 2.153,-0.112 3.352,1.197c0.453,0.491 1.185,-0.192 0.738,-0.675c-1.203,-1.316 -3.026,-1.506 -3.795,-1.524c-0.269,-0.516 -0.692,-0.94 -1.104,-1.269c-0.262,-1.627 4.213,-2.747 5.293,-1.498c0.19,0.24 0.558,0.256 0.769,0.017l1.813,-2.079c0.433,-0.496 -0.319,-1.161 -0.756,-0.658l-1.493,1.713c-1.894,-1.237 -6.019,-0.147 -6.556,1.885c-0.74,-0.403 -1.04,-0.642 -2.179,-0.63c-0.159,-2.634 -2.278,-3.884 -4.858,-4.048c-0.527,-3.52 -8.303,-4.633 -8.493,0.734c-0.025,0.664 0.971,0.685 1,0.038c0.148,-4.21 6.584,-2.989 6.523,-0.295c-0.006,0.277 0.204,0.508 0.513,0.512c1,-0.214 4.184,0.416 4.322,3.16c-2.402,0.398 -4.094,1.47 -3.974,3.926c-1.31,-0.555 -3.207,-0.842 -4.621,0.495c-1.284,-1.223 -2.984,-1.246 -3.843,-1.155c-0.532,-2.705 -3.268,-4.404 -7.322,-2.08c-0.805,-0.87 -1.866,-1.339 -3.031,-1.128c0.084,-0.962 0.611,-3.256 3.72,-3.688c0.279,-0.039 0.483,-0.309 0.42,-0.604c-0.016,-0.073 -0.361,-1.812 1.571,-3.694c0.476,-0.463 -0.225,-1.177 -0.697,-0.717c-1.705,1.661 -1.923,3.293 -1.904,4.105c-2.461,0.506 -3.455,2.091 -3.855,3.355c-1.618,-2.176 -5.052,-2.495 -5.227,-2.509c-0.666,-0.05 -0.739,0.94 -0.085,0.997c0.043,0.004 4.24,0.406 5.006,3.151c-1.075,0.571 -2.159,1.632 -2.508,2.828c-1.135,0.382 -1.902,1.196 -2.305,1.762c-2.505,-2.064 -7.942,-0.393 -6.6,4.33c-1.719,0.149 -3.304,0.907 -4.495,2.153c-1.322,-1.61 -2.868,-6.186 3.378,-6.186zm43.975,11.849l-1.905,12.853c-2.245,-2.126 -5.321,-3.789 -8.899,-4.755l0.47,-8.455c0.198,-3.703 2.473,-5.491 5.293,-5.491c3.107,0 5.496,2.762 5.041,5.845c0,0 0,0.001 0,0.003zm-17.975,33.151c-9.925,0 -18,-5.383 -18,-12s8.075,-12 18,-12s18,5.383 18,12s-8.075,12 -18,12zm-11.933,-39c2.933,0 4.89,2.067 5.198,4.448c-0.075,0.82 -0.037,0.73 0.281,9.315c-3.423,0.82 -6.428,2.266 -8.734,4.153l-1.788,-12.066c0,-0.001 0,-0.003 0,-0.004c-0.452,-3.078 1.929,-5.846 5.043,-5.846zm-11.904,-1.971c-1.461,-4.054 3.677,-5.292 5.247,-3.233c0.213,0.292 0.681,0.269 0.851,-0.076c0.006,-0.013 0.563,-1.106 1.655,-1.668c0.127,1.141 1.05,2.094 2.025,2.701c-0.449,0.85 -0.504,1.744 -0.291,2.677c-1.56,0.565 -2.875,1.628 -3.75,3.163c-1.168,-2.035 -3.316,-3.416 -5.737,-3.564zm13.921,-7.252c0.153,0.229 0.459,0.291 0.693,0.139c3.573,-2.488 6.191,-0.621 6.223,1.584c0,0.312 0.285,0.562 0.617,0.487c0.021,-0.005 2.161,-0.501 3.529,0.867c0,0.001 0.002,0.001 0.002,0.002c-0.815,1.389 -0.448,3.049 0.076,4.179c-0.22,-0.022 -0.445,-0.035 -0.669,-0.035c-2.884,0 -5.014,1.345 -6.277,3.388c-1.724,-2.806 -4.907,-3.813 -7.667,-3.234c-0.107,-0.502 -0.156,-1.2 0.169,-1.859c0.419,-0.848 1.368,-1.435 2.823,-1.744c0.271,-0.058 0.443,-0.323 0.386,-0.593c-0.057,-0.271 -0.333,-0.44 -0.593,-0.385c-1.249,0.266 -2.199,0.73 -2.851,1.377c-0.418,-0.251 -1.478,-0.978 -1.641,-1.978c-0.266,-1.645 3.061,-5.02 5.18,-2.195zm15.109,22.719c-1.659,-0.314 -3.394,-0.496 -5.193,-0.496c-1.537,0 -3.029,0.134 -4.467,0.365l-0.299,-8.078c-0.098,-2.715 1.958,-5.285 5.323,-5.285c2.918,0 5.252,2.446 5.09,5.38l-0.454,8.114zm-23.405,38.504l-11.004,-45.71c-0.368,-1.528 -0.021,-3.112 0.951,-4.347c0.972,-1.235 2.432,-1.943 4.004,-1.943c2.508,0 4.675,1.87 5.042,4.35l2.261,15.263c-1.916,2.147 -3.042,4.674 -3.042,7.387c0,3.75 2.128,7.152 5.569,9.668l2.272,15.332l-6.053,0zm8.075,0l-2.064,-13.932c1.985,1.074 4.261,1.894 6.736,2.387l0.428,11.545l-5.1,0zm7.137,0l-0.036,0l-0.416,-11.223c1.124,0.137 2.273,0.223 3.452,0.223c1.258,0 2.484,-0.091 3.68,-0.248l-0.625,11.248l-6.055,0zm8.057,0l0.646,-11.587c2.854,-0.595 5.43,-1.629 7.595,-2.983l-2.161,14.57l-6.08,0zm25.159,-45.709l-11.004,45.709l-6.053,0l2.403,-16.227c2.771,-2.403 4.438,-5.453 4.438,-8.773c0,-2.286 -0.803,-4.439 -2.197,-6.348l2.415,-16.302c0.367,-2.48 2.534,-4.35 5.042,-4.35c3.301,0 5.726,3.087 4.956,6.291z"/>
 </g>
</svg>
